HIERARCHY
ROOT joint_Root
{
	OFFSET 0.0 0.0 0.0
	CHANNELS 6 Xposition Yposition Zposition Zrotation Xrotation Yrotation 
	JOINT Hips
	{
		OFFSET 4.5925 91.4895 -427.239
		CHANNELS 6 Xposition Yposition Zposition Zrotation Xrotation Yrotation 
		JOINT Spine
		{
			OFFSET 15.7357 0.0 0.0
			CHANNELS 6 Xposition Yposition Zposition Zrotation Xrotation Yrotation 
			JOINT Chest
			{
				OFFSET 8.98455 -0.406207 0.0
				CHANNELS 6 Xposition Yposition Zposition Zrotation Xrotation Yrotation 
				JOINT Neck
				{
					OFFSET 16.3773 0.0 0.0
					CHANNELS 6 Xposition Yposition Zposition Zrotation Xrotation Yrotation 
					JOINT Head
					{
						OFFSET 6.45672 0.0 0.0
						CHANNELS 6 Xposition Yposition Zposition Zrotation Xrotation Yrotation 
						End Site
						{
							OFFSET 0.0 0.0 0.0
						}
					}
				}
				JOINT Shoulder_L
				{
					OFFSET 12.9942 -0.242716 4.98039
					CHANNELS 6 Xposition Yposition Zposition Zrotation Xrotation Yrotation 
					JOINT UpperArm_L
					{
						OFFSET 5.34809 0.0 0.0
						CHANNELS 6 Xposition Yposition Zposition Zrotation Xrotation Yrotation 
						JOINT LowerArm_L
						{
							OFFSET 24.3286 1.87007e-05 0.0
							CHANNELS 6 Xposition Yposition Zposition Zrotation Xrotation Yrotation 
							JOINT Hand_L
							{
								OFFSET 22.2916 0.0 0.0
								CHANNELS 6 Xposition Yposition Zposition Zrotation Xrotation Yrotation 
								End Site
								{
									OFFSET 0.0 0.0 0.0
								}
							}
						}
					}
				}
				JOINT Shoulder_R
				{
					OFFSET 12.9945 -0.242716 -4.98039
					CHANNELS 6 Xposition Yposition Zposition Zrotation Xrotation Yrotation 
					JOINT UpperArm_R
					{
						OFFSET -5.34813 0.0 0.0
						CHANNELS 6 Xposition Yposition Zposition Zrotation Xrotation Yrotation 
						JOINT LowerArm_R
						{
							OFFSET -24.3289 0.000322201 0.0
							CHANNELS 6 Xposition Yposition Zposition Zrotation Xrotation Yrotation 
							JOINT Hand_R
							{
								OFFSET -22.2915 -0.000108084 0.0
								CHANNELS 6 Xposition Yposition Zposition Zrotation Xrotation Yrotation 
								End Site
								{
									OFFSET 0.0 0.0 0.0
								}
							}
						}
					}
				}
			}
		}
		JOINT UpperLeg_L
		{
			OFFSET -2.19248 -6.46944 0.0
			CHANNELS 6 Xposition Yposition Zposition Zrotation Xrotation Yrotation 
			JOINT LowerLeg_L
			{
				OFFSET 39.0811 0.0 -1.23785e-05
				CHANNELS 6 Xposition Yposition Zposition Zrotation Xrotation Yrotation 
				JOINT Foot_L
				{
					OFFSET 40.9854 0.0 -1.26872e-05
					CHANNELS 6 Xposition Yposition Zposition Zrotation Xrotation Yrotation 
					JOINT Toes_L
					{
						OFFSET 11.7543 0.0 0.0
						CHANNELS 6 Xposition Yposition Zposition Zrotation Xrotation Yrotation 
						End Site
						{
							OFFSET 0.0 0.0 0.0
						}
					}
				}
			}
		}
		JOINT UpperLeg_R
		{
			OFFSET -2.19251 6.46944 0.0
			CHANNELS 6 Xposition Yposition Zposition Zrotation Xrotation Yrotation 
			JOINT LowerLeg_R
			{
				OFFSET -39.0811 -0.00228153 -0.0401928
				CHANNELS 6 Xposition Yposition Zposition Zrotation Xrotation Yrotation 
				JOINT Foot_R
				{
					OFFSET -40.9854 0.0 0.0
					CHANNELS 6 Xposition Yposition Zposition Zrotation Xrotation Yrotation 
					JOINT Toes_R
					{
						OFFSET -11.7543 0.0 0.0
						CHANNELS 6 Xposition Yposition Zposition Zrotation Xrotation Yrotation 
						End Site
						{
							OFFSET 0.0 0.0 0.0
						}
					}
				}
			}
		}
	}
}
MOTION
Frames:	4
Frame Time:	0.0333333
0.000000 0.000000 0.000000 0.000000 0.000000 -0.000000 8.474620 89.666000 -0.783401 95.563400 -7.025820 11.057500 15.735700 0.000005 -0.000001 87.630400 84.166700 -89.775000 8.984550 -0.406207 -0.000000 3.886670 -0.409173 -4.270530 16.377300 -0.000001 -0.000001 11.894300 -1.478960 -1.217090 6.456720 -0.000001 -0.000000 9.059360 -0.919373 -4.203820 12.994200 -0.242716 4.980390 -91.292300 4.155040 -72.706200 5.348090 -0.000007 -0.000001 -67.412300 33.498700 -8.530550 24.328600 0.000019 0.000005 7.282590 25.825300 -16.349200 22.291600 -0.000001 0.000005 5.363580 5.234130 1.848490 12.994500 -0.242716 -4.980390 88.512500 8.592090 -80.139600 -5.348130 -0.000001 -0.000004 -67.275700 28.929700 -2.011120 -24.328900 0.000322 -0.000009 1.056470 4.694880 -12.709000 -22.291500 -0.000108 -0.000004 12.475500 5.356120 -1.561720 -2.192480 -6.469440 -0.000000 172.541000 -16.417500 -1.112590 39.081100 -0.000007 -0.000012 0.045738 -0.074203 31.648800 40.985400 -0.000006 -0.000013 5.720740 -0.320108 -71.462200 11.754300 -0.000000 0.000003 -0.000125 -0.001241 -16.624900 -2.192510 6.469440 -0.000001 164.935000 9.348060 174.526000 -39.081100 -0.002282 -0.040193 0.028944 -0.032426 38.357900 -40.985400 0.000008 0.000006 -0.084098 6.583640 -71.381300 -11.754300 -0.000006 -0.000006 -0.006317 -0.073690 -19.572400
0.000000 0.000000 0.000000 0.000000 0.000000 -0.000000 8.379090 89.663100 -0.741029 95.649000 -7.072060 11.001100 15.735700 0.000005 -0.000001 87.322000 84.130800 -89.437500 8.984550 -0.406207 -0.000000 3.954350 -0.477382 -4.209710 16.377300 -0.000001 -0.000001 11.807900 -1.397730 -1.029090 6.456720 -0.000001 -0.000000 8.808950 -0.758930 -4.077690 12.994200 -0.242716 4.980390 -91.336300 4.274220 -72.621100 5.348090 -0.000007 -0.000001 -66.691600 32.426600 -8.829040 24.328600 0.000019 0.000005 7.132960 25.856400 -16.010300 22.291600 -0.000001 0.000005 5.758050 5.226060 2.057050 12.994500 -0.242716 -4.980390 88.500300 8.613170 -80.083900 -5.348130 -0.000001 -0.000004 -66.797600 28.354100 -2.044640 -24.328900 0.000322 -0.000009 1.036180 4.630090 -12.641500 -22.291500 -0.000108 -0.000004 12.627700 5.353830 -1.492580 -2.192480 -6.469440 -0.000000 172.511000 -16.405800 -1.145460 39.081100 -0.000007 -0.000012 0.042381 -0.068771 31.643400 40.985400 -0.000006 -0.000013 5.636320 -0.343026 -71.479700 11.754300 -0.000000 0.000003 -0.000120 -0.001205 -16.623600 -2.192510 6.469440 -0.000001 164.899000 9.412350 174.446000 -39.081100 -0.002282 -0.040193 0.029804 -0.033419 38.435900 -40.985400 0.000008 0.000006 0.016641 6.677680 -71.475700 -11.754300 -0.000006 -0.000006 -0.006270 -0.073272 -19.555400
0.000000 0.000000 0.000000 0.000000 0.000000 -0.000000 8.271130 89.653000 -0.695760 95.708700 -7.140480 11.018300 15.735700 0.000005 -0.000001 87.055100 84.070500 -89.128500 8.984550 -0.406207 -0.000000 4.071130 -0.541582 -4.122850 16.377300 -0.000001 -0.000001 11.769000 -1.344920 -0.777455 6.456720 -0.000001 -0.000000 8.567600 -0.646104 -3.883940 12.994200 -0.242716 4.980390 -91.391000 4.412550 -72.483300 5.348090 -0.000007 -0.000001 -65.881500 31.610400 -9.336420 24.328600 0.000019 0.000005 6.908650 25.087700 -15.948000 22.291600 -0.000001 0.000005 6.005810 5.212580 2.401700 12.994500 -0.242716 -4.980390 88.478000 8.681380 -80.016100 -5.348130 -0.000001 -0.000004 -66.302600 27.998600 -2.319080 -24.328900 0.000322 -0.000009 0.988717 4.366200 -12.785600 -22.291500 -0.000108 -0.000004 12.881000 5.355490 -1.542730 -2.192480 -6.469440 -0.000000 172.571000 -16.546400 -1.114840 39.081100 -0.000007 -0.000012 0.039998 -0.064789 31.688800 40.985400 -0.000006 -0.000013 5.574240 -0.264352 -71.535700 11.754300 -0.000000 0.000003 -0.000131 -0.001299 -16.627100 -2.192510 6.469440 -0.000001 164.899000 9.481460 174.422000 -39.081100 -0.002282 -0.040193 0.031009 -0.034798 38.547300 -40.985400 0.000008 0.000006 0.208395 6.724890 -71.608000 -11.754300 -0.000006 -0.000006 -0.006034 -0.071145 -19.468600
0.000000 0.000000 0.000000 0.000000 0.000000 -0.000000 8.151400 89.646700 -0.648057 95.781000 -7.270610 11.091700 15.735700 0.000005 -0.000001 86.959800 84.003100 -88.996300 8.984550 -0.406207 -0.000000 4.204200 -0.571897 -4.047470 16.377300 -0.000001 -0.000001 11.850100 -1.348770 -0.508931 6.456720 -0.000001 -0.000000 8.314960 -0.594171 -3.492760 12.994200 -0.242716 4.980390 -91.440900 4.547590 -72.398900 5.348090 -0.000007 -0.000001 -65.161200 30.975400 -9.874770 24.328600 0.000019 0.000005 6.843830 24.552100 -16.110700 22.291600 -0.000001 0.000005 6.577870 5.205850 2.572220 12.994500 -0.242716 -4.980390 88.447200 8.820480 -79.974800 -5.348130 -0.000001 -0.000004 -65.820300 27.961600 -2.756840 -24.328900 0.000322 -0.000009 0.924032 3.971380 -13.123600 -22.291500 -0.000108 -0.000004 13.120600 5.356800 -1.582450 -2.192480 -6.469440 -0.000000 172.628000 -16.639000 -1.001010 39.081100 -0.000007 -0.000012 0.034936 -0.056569 31.697900 40.985400 -0.000006 -0.000013 5.468200 -0.295225 -71.583800 11.754300 -0.000000 0.000003 -0.000130 -0.001286 -16.626600 -2.192510 6.469440 -0.000001 164.882000 9.441970 174.432000 -39.081100 -0.002282 -0.040193 0.029960 -0.033341 38.665300 -40.985400 0.000008 0.000006 0.192721 6.846430 -71.642500 -11.754300 -0.000006 -0.000006 -0.006140 -0.072103 -19.507700
